<svg width="87" height="100" viewBox="0 0 87 100" xmlns="http://www.w3.org/2000/svg"><g fill-rule="nonzero" fill="none"><path d="M65.816 93.05c0 2.507-2.032 4.54-4.54 4.54H6.81c-2.51 0-4.54-2.033-4.54-4.54V15.887c0-2.508 2.03-4.54 4.54-4.54h54.467c2.507 0 4.54 2.032 4.54 4.54V93.05z" fill="#FFF"/><path d="M61.277 99.858H6.81C3.054 99.858 0 96.803 0 93.05V15.887c0-3.754 3.055-6.81 6.81-6.81h54.467c3.753 0 6.808 3.056 6.808 6.81V93.05c0 3.753-3.055 6.808-6.808 6.808zM6.81 13.618c-1.252 0-2.27 1.018-2.27 2.27V93.05c0 1.25 1.018 2.27 2.27 2.27h54.467c1.25 0 2.27-1.02 2.27-2.27V15.887c0-1.25-1.02-2.27-2.27-2.27H6.81z" fill="#000"/><path d="M54.468 90.78h-40.85c-2.51 0-4.54-2.03-4.54-4.54V20.427h49.93V86.24c0 2.51-2.032 4.54-4.54 4.54z" fill="#D8EFF7"/><path d="M56.738 20.426h-45.39v-4.54c0-7.52 6.095-13.616 13.616-13.616H43.12c7.52 0 13.617 6.096 13.617 13.617v4.54z" fill="#0093FF"/><path d="M56.738 22.695h-45.39c-1.253 0-2.27-1.017-2.27-2.27v-4.538C9.078 7.127 16.204 0 24.964 0H43.12c8.76 0 15.887 7.126 15.887 15.887v4.54c0 1.25-1.017 2.268-2.27 2.268zm-43.12-4.54h40.85v-2.268c0-6.257-5.09-11.348-11.347-11.348H24.966c-6.258 0-11.348 5.09-11.348 11.347v2.27z" fill="#000"/><circle fill="#000" cx="34.043" cy="11.347" r="2.27"/><path d="M52.2 34.043H15.886c-1.253 0-2.27-1.017-2.27-2.27 0-1.253 1.017-2.27 2.27-2.27H52.2c1.25 0 2.268 1.017 2.268 2.27 0 1.253-1.017 2.27-2.27 2.27zM34.043 45.39H15.887c-1.253 0-2.27-1.017-2.27-2.27 0-1.252 1.017-2.27 2.27-2.27h18.156c1.252 0 2.27 1.018 2.27 2.27 0 1.253-1.018 2.27-2.27 2.27zM52.2 45.39h-9.08c-1.252 0-2.27-1.017-2.27-2.27 0-1.252 1.018-2.27 2.27-2.27h9.08c1.25 0 2.268 1.018 2.268 2.27 0 1.253-1.017 2.27-2.27 2.27zM52.2 56.738H34.042c-1.253 0-2.27-1.017-2.27-2.27 0-1.253 1.017-2.27 2.27-2.27H52.2c1.25 0 2.268 1.017 2.268 2.27 0 1.253-1.017 2.27-2.27 2.27zM24.964 56.738h-9.078c-1.252 0-2.27-1.017-2.27-2.27 0-1.253 1.018-2.27 2.27-2.27h9.08c1.25 0 2.268 1.017 2.268 2.27 0 1.253-1.017 2.27-2.27 2.27zM52.2 79.433H34.042c-1.253 0-2.27-1.017-2.27-2.27 0-1.253 1.017-2.27 2.27-2.27H52.2c1.25 0 2.268 1.017 2.268 2.27 0 1.253-1.017 2.27-2.27 2.27zM24.964 79.433h-9.078c-1.252 0-2.27-1.017-2.27-2.27 0-1.253 1.018-2.27 2.27-2.27h9.078c1.253 0 2.27 1.017 2.27 2.27 0 1.253-1.017 2.27-2.27 2.27zM34.043 68.085H15.887c-1.253 0-2.27-1.017-2.27-2.27 0-1.252 1.017-2.27 2.27-2.27h18.156c1.252 0 2.27 1.018 2.27 2.27 0 1.253-1.018 2.27-2.27 2.27zM52.2 68.085h-9.08c-1.252 0-2.27-1.017-2.27-2.27 0-1.252 1.018-2.27 2.27-2.27h9.08c1.25 0 2.268 1.018 2.268 2.27 0 1.253-1.017 2.27-2.27 2.27z" fill="#000"/><circle fill="#13BA8E" cx="65.816" cy="54.468" r="18.156"/><path d="M65.816 74.894c-11.262 0-20.426-9.165-20.426-20.426 0-11.26 9.164-20.425 20.426-20.425 11.26 0 20.425 9.164 20.425 20.425 0 11.26-9.163 20.426-20.424 20.426zm0-36.313c-8.76 0-15.887 7.128-15.887 15.888s7.125 15.887 15.886 15.887c8.76 0 15.886-7.127 15.886-15.887 0-8.76-7.126-15.887-15.886-15.887z" fill="#000"/><path d="M65.816 61.277c-.6 0-1.178-.236-1.605-.665l-6.807-6.81c-.888-.886-.888-2.32 0-3.208.887-.887 2.32-.887 3.21 0l4.75 4.752 5.314-8.855c.644-1.075 2.038-1.422 3.114-.778 1.077.645 1.424 2.038.78 3.114l-6.81 11.348c-.358.6-.975.998-1.667 1.085-.09.012-.184.017-.277.017z" fill="#000"/></g></svg>