<?xml version="1.0" encoding="utf-8"?>
<!-- Generator: Adobe Illustrator 21.0.2, SVG Export Plug-In . SVG Version: 6.00 Build 0)  -->
<svg version="1.1" xmlns="http://www.w3.org/2000/svg" xmlns:xlink="http://www.w3.org/1999/xlink" x="0px" y="0px"
	 viewBox="0 0 331.2 274" style="enable-background:new 0 0 331.2 274;" xml:space="preserve">
<title>Asset 1</title>
<g>
	<g>
		<path d="M0,175.2V265c0,5,3.5,9,7.8,9h315.4c4.3,0,7.9-4,7.9-9V9c0-5-3.5-9-7.9-9h-94.4c-31.3,0-53.1,23.2-63.3,37.2
			c-10.3-14-32-37.2-63.3-37.2H7.8C3.5,0,0,4,0,9v123.6 M15.7,132.6V18h86.6c30.4,0,50.5,29.1,55.5,37v183.1
			c-15.5-14.5-41.1-24.6-76.6-30.1c-21.6-3.2-43.5-4.7-65.4-4.5v-28.2 M228.9,18h86.6v185.5h-3.2c-17.2,0-50.6,1.1-81.9,8.3
			c-25.4,5.9-44.5,14.7-56.9,26.4V55C178.3,47.1,198.4,18,228.9,18z M15.7,221.5c21.2-0.2,42.3,1.3,63.3,4.3
			c35.5,5.5,60.5,16,72.4,30.2H15.7V221.5z M179.6,256c21-25.2,79.8-34.5,132.7-34.5h3.2V256H179.6z"/>
	</g>
</g>
</svg>
