<?xml version="1.0" encoding="UTF-8"?>
<svg width="70px" height="20px" viewBox="0 0 70 20" version="1.1" xmlns="http://www.w3.org/2000/svg" xmlns:xlink="http://www.w3.org/1999/xlink">
    <g id="homepageV4" stroke="none" stroke-width="1" fill="none" fill-rule="evenodd">
        <g id="StudyDetail-Lastweek" transform="translate(-881.000000, -7982.000000)" fill-rule="nonzero" fill="#000">
            <g id="Group-11" transform="translate(881.000000, 7982.000000)">
                <g id="Group-16" style="mix-blend-mode: difference;">
                    <g id="nlm-logo-letters-white" transform="translate(36.939920, 4.615385)">
                        <polygon id="Shape" points="1.82215022 0.0461653875 7.97190721 9.64856599 8.01746097 9.64856599 8.01746097 0.0461653875 9.47518114 0.0461653875 9.47518114 11.91067 7.78969219 11.91067 1.68548895 2.40060015 1.6399352 2.40060015 1.6399352 11.91067 0.182215022 11.91067 0.182215022 0.0461653875"></polygon>
                        <polygon id="Shape" points="13.5750191 0.0461653875 13.5750191 10.5718737 19.7703299 10.5718737 19.7703299 11.91067 12.0261914 11.91067 12.0261914 0.0461653875"></polygon>
                        <polygon id="Shape" points="23.3235228 0.0461653875 27.013377 10.0178891 30.7032312 0.0461653875 32.8442577 0.0461653875 32.8442577 11.91067 31.3865375 11.91067 31.3865375 2.07744244 31.3409838 2.07744244 27.6966833 11.9568354 26.3756244 11.9568354 22.731324 2.07744244 22.6857702 2.07744244 22.6857702 11.9568354 21.2280501 11.9568354 21.2280501 0.0461653875 23.3235228 0.0461653875"></polygon>
                    </g>
                    <g id="nih-logo-white">
                        <path d="M20.8447109,5.58078562 L20.8447109,14.1954211 L19.3663626,14.1954211 L19.3663626,10.3001077 L15.5596158,10.3001077 L15.5596158,14.1954211 L14.0812675,14.1954211 L14.0812675,5.58078562 L15.5596158,5.58078562 L15.5596158,8.98918489 L19.3663626,8.98918489 L19.3663626,5.58078562 L20.8447109,5.58078562 Z M12.6029192,14.1954211 L11.1245709,14.1954211 L11.1245709,5.58078562 L12.6029192,5.58078562 L12.6029192,14.1954211 Z M9.72014002,14.1954211 L8.16787431,14.1954211 L4.36112746,7.86553678 L4.32416875,7.86553678 L4.32416875,14.1954211 L2.91973788,14.1954211 L2.91973788,5.58078562 L4.47200358,5.58078562 L8.31570914,11.91067 L8.35266785,11.91067 L8.35266785,5.58078562 L9.75709872,5.58078562 L9.72014002,14.1954211 L9.72014002,14.1954211 Z M26.0189299,9.85064844 L20.8447109,0.224729622 L1.73705924,0.224729622 C0.776132853,0.224729622 0,1.0112833 0,1.98511166 L0,17.6787303 C0,18.6525586 0.776132853,19.4391123 1.73705924,19.4391123 L20.8077522,19.4391123 L26.0189299,9.85064844 Z" id="Shape"></path>
                        <path d="M22.101307,19.4765673 L27.3124847,9.85064844 L22.1382657,0.224729622 L23.4318204,0.224729622 C24.1340359,0.224729622 25.0210448,0.749098741 25.3536732,1.38583267 L29.8995942,9.85064844 L25.3167145,18.3154642 C24.9840861,18.9521981 24.0970772,19.4765673 23.3948617,19.4765673 L22.101307,19.4765673 L22.101307,19.4765673 Z" id="Shape"></path>
                    </g>
                </g>
            </g>
        </g>
    </g>
</svg>