<svg width="111" height="100" viewBox="0 0 111 100" xmlns="http://www.w3.org/2000/svg"><g fill-rule="nonzero" fill="none"><path d="M107.538 47.022c-1.798-15.243-15.612-26.14-30.856-24.34-15.243 1.798-26.14 15.615-24.34 30.855.422 3.575 1.526 6.898 3.132 9.888l-5.513 14.02h24.2c2.897.616 5.935.8 9.04.433 15.24-1.798 26.137-15.612 24.338-30.856z" fill="#13BA8E"/><path d="M80.01 80.564c-2.033 0-4.08-.207-6.11-.622H49.96c-.826 0-1.6-.41-2.063-1.092-.467-.682-.564-1.55-.26-2.32l5.102-12.968c-1.51-3.082-2.477-6.35-2.877-9.73-.95-8.033 1.29-15.957 6.298-22.31 5.012-6.35 12.197-10.372 20.233-11.32 8.03-.948 15.955 1.288 22.31 6.3 6.352 5.01 10.37 12.195 11.32 20.228.948 8.034-1.29 15.958-6.3 22.31-5.01 6.35-12.195 10.372-20.23 11.322-1.157.134-2.32.202-3.483.202zm-26.382-5.618h20.53c.176 0 .35.017.52.055 2.75.585 5.517.718 8.227.398 6.712-.792 12.71-4.15 16.895-9.453 4.184-5.306 6.052-11.92 5.258-18.63-.79-6.71-4.147-12.708-9.453-16.892-5.303-4.184-11.926-6.05-18.628-5.26-6.712.79-12.71 4.148-16.894 9.452-4.184 5.306-6.053 11.92-5.258 18.63.37 3.14 1.33 6.165 2.852 8.996.348.648.393 1.415.125 2.1l-4.174 10.606z" fill="#000"/><path d="M91.056 44.722h-5.558v-5.558c0-3.07-2.488-5.558-5.558-5.558s-5.558 2.488-5.558 5.558v5.558h-5.558c-3.07 0-5.558 2.488-5.558 5.558s2.488 5.558 5.558 5.558h5.558v5.558c0 3.07 2.488 5.558 5.558 5.558s5.558-2.488 5.558-5.558v-5.558h5.558c3.07 0 5.56-2.488 5.56-5.558s-2.49-5.558-5.56-5.558z" fill="#FFF"/><path d="M22.058 97.428l-5.943-3.035C7.76 90.123 2.498 81.53 2.498 72.148V27.785C2.498 18.4 7.756 9.81 16.115 5.54l5.943-3.038h12.915c2.76 0 4.996 2.236 4.996 4.996v14.988c0 2.76-2.237 4.996-4.997 4.996h-2.498c-5.52 0-9.993 4.474-9.993 9.993v24.98c0 5.52 4.474 9.993 9.993 9.993h2.498c2.76 0 4.996 2.235 4.996 4.996v14.988c0 2.76-2.237 4.996-4.997 4.996H22.058z" fill="#0093FF"/><path d="M34.973 99.926H22.058c-.395 0-.784-.095-1.137-.272L14.98 96.62C5.74 91.9 0 82.52 0 72.147V27.785C0 17.41 5.74 8.033 14.978 3.315L20.92.278c.353-.18.743-.276 1.138-.276h12.915c4.13 0 7.494 3.363 7.494 7.495v14.987c0 4.132-3.363 7.494-7.494 7.494h-2.5c-4.13 0-7.493 3.363-7.493 7.495v24.98c0 4.133 3.363 7.495 7.494 7.495h2.5c4.13 0 7.493 3.362 7.493 7.494v14.988c0 4.132-3.363 7.494-7.494 7.494zM22.657 94.93h12.316c1.38 0 2.498-1.12 2.498-2.498V77.444c0-1.377-1.118-2.498-2.497-2.498h-2.498c-6.887 0-12.49-5.603-12.49-12.49v-24.98c0-6.888 5.603-12.49 12.49-12.49h2.498c1.38 0 2.498-1.123 2.498-2.5V7.5C37.47 6.122 36.353 5 34.974 5H22.657l-5.405 2.763C9.692 11.625 4.996 19.297 4.996 27.785v44.363c0 8.488 4.696 16.16 12.256 20.022l5.405 2.76z" fill="#000"/><circle fill="#000" cx="29.977" cy="84.938" r="2.498"/><circle fill="#000" cx="19.984" cy="82.44" r="2.498"/><circle fill="#000" cx="29.977" cy="14.993" r="2.498"/><circle fill="#000" cx="19.984" cy="17.491" r="2.498"/></g></svg>