<svg width="100" height="100" viewBox="0 0 100 100" xmlns="http://www.w3.org/2000/svg"><g fill-rule="nonzero" fill="none"><path d="M97.39 85.87c1.593 1.59 2.39 3.675 2.39 5.764 0 2.086-.797 4.173-2.39 5.762-1.593 1.59-3.687 2.385-5.78 2.385-2.09 0-4.183-.795-5.776-2.384L62.01 73.634c-.37-.366-.578-.866-.578-1.387 0-.52.208-1.02.578-1.388l.952-.95-2.338-2.334c-6.743 5.186-14.86 7.78-22.976 7.78-9.646 0-19.292-3.66-26.633-10.984-14.685-14.646-14.685-38.48 0-53.125C25.7-3.4 49.595-3.4 64.28 11.247c13.52 13.487 14.59 34.76 3.213 49.48l2.336 2.33.95-.95c.77-.766 2.017-.766 2.786 0L97.39 85.87zm-2.784 8.75c1.65-1.648 1.65-4.326 0-5.973l-22.43-22.374-5.99 5.974 22.43 22.374c1.65 1.648 4.34 1.648 5.99 0zm-23.23-56.81c0-8.985-3.51-17.433-9.88-23.786-6.37-6.353-14.84-9.853-23.848-9.853-9.01 0-17.48 3.5-23.85 9.854-6.37 6.353-9.877 14.8-9.877 23.785 0 8.984 3.507 17.43 9.877 23.785 6.37 6.353 14.84 9.853 23.85 9.853 9.01 0 17.478-3.5 23.85-9.853 6.37-6.354 9.878-14.8 9.878-23.786zm-5.63 29.322l1.3-1.296-2.126-2.12c-.21.222-.425.44-.64.657-.218.217-.438.43-.66.638l2.127 2.122z" fill="#2D527C"/><path d="M94.606 88.647c1.65 1.647 1.65 4.325 0 5.974-1.65 1.648-4.34 1.648-5.99 0l-22.43-22.373 5.99-5.974 22.43 22.374z" fill="#0093FF"/><path d="M61.496 14.024c6.37 6.353 9.88 14.8 9.88 23.785 0 8.984-3.51 17.43-9.88 23.785-6.37 6.353-14.84 9.853-23.848 9.853-9.01 0-17.48-3.5-23.85-9.853-6.37-6.354-9.877-14.8-9.877-23.786 0-8.985 3.507-17.433 9.877-23.786 6.37-6.353 14.84-9.853 23.85-9.853 9.01 0 17.478 3.5 23.85 9.854zm5.726 23.785c0-7.88-3.078-15.286-8.664-20.86-5.585-5.57-13.013-8.638-20.91-8.638-7.9 0-15.33 3.068-20.914 8.64-5.585 5.572-8.66 12.978-8.66 20.857 0 7.88 3.075 15.285 8.66 20.858 5.585 5.57 13.013 8.64 20.914 8.64 7.897 0 15.325-3.07 20.91-8.64 5.586-5.573 8.664-12.98 8.664-20.86zM67.046 65.836l-1.3 1.295-2.125-2.12c.222-.208.442-.42.66-.638.215-.217.43-.434.64-.657l2.126 2.12z" fill="#13BA8E"/><path d="M58.558 16.95c5.586 5.574 8.664 12.98 8.664 20.86 0 7.88-3.078 15.285-8.664 20.858-5.585 5.57-13.013 8.64-20.91 8.64-7.9 0-15.33-3.07-20.914-8.64-5.585-5.573-8.66-12.98-8.66-20.86 0-7.878 3.075-15.284 8.66-20.857 5.585-5.57 13.013-8.638 20.914-8.638 7.897 0 15.325 3.068 20.91 8.64zm-2.782 38.94c9.995-9.97 9.995-26.19 0-36.16-4.842-4.83-11.28-7.49-18.128-7.49-6.848 0-13.286 2.66-18.13 7.49-9.996 9.97-9.996 26.19 0 36.16 4.844 4.83 11.282 7.49 18.13 7.49 6.848 0 13.286-2.66 18.128-7.49z" fill="#2D527C"/><path d="M53.955 21.545c.77.767.77 2.008 0 2.775-.386.385-.887.576-1.39.576-.505 0-1.01-.19-1.395-.576-1.087-1.084-2.297-2.034-3.598-2.822-.93-.563-1.223-1.772-.66-2.7.565-.923 1.778-1.22 2.707-.656 1.566.953 3.025 2.097 4.335 3.403zM53.955 51.3c.77.766.77 2.007 0 2.774-4.37 4.358-10.184 6.74-16.27 6.74-.92 0-1.843-.054-2.77-.164-1.078-.126-1.85-1.102-1.72-2.18.125-1.077 1.104-1.846 2.185-1.718 5.864.694 11.62-1.293 15.79-5.453.77-.768 2.016-.768 2.785 0zM41.212 15.082c1.076.167 1.81 1.17 1.643 2.243-.168 1.07-1.173 1.804-2.25 1.636-6.018-.933-12.18 1.07-16.482 5.36-.383.385-.887.576-1.39.576-.505 0-1.01-.19-1.395-.576-.77-.767-.77-2.008 0-2.775 5.19-5.175 12.617-7.59 19.874-6.463zM27.543 54.01c.92.574 1.202 1.786.627 2.705-.373.597-1.016.924-1.672.924-.354 0-.716-.095-1.04-.297-1.485-.924-2.87-2.023-4.12-3.27-.77-.766-.77-2.007 0-2.774.77-.768 2.016-.768 2.785 0 1.036 1.033 2.186 1.944 3.42 2.71z" fill="#000"/></g></svg>